<mxfile host="app.diagrams.net" modified="2023-11-29T07:21:13.319Z" agent="Mozilla/5.0 (Windows NT 10.0; Win64; x64) AppleWebKit/537.36 (KHTML, like Gecko) Chrome/121.0.0.0 Safari/537.36" etag="69eauf0o2l_8B_U7znr4" version="22.1.4" type="github">
  <diagram id="sgeQ1aj0PMBoHTcmgw72" name="Page-1">
    <mxGraphModel dx="1434" dy="750" grid="0" gridSize="10" guides="1" tooltips="1" connect="1" arrows="1" fold="1" page="1" pageScale="1" pageWidth="827" pageHeight="1169" math="1" shadow="0">
      <root>
        <mxCell id="0" />
        <mxCell id="1" parent="0" />
        <mxCell id="mvvto3tUJ9cvRBS9fWSG-2" value="&lt;font style=&quot;vertical-align: inherit&quot;&gt;&lt;font style=&quot;vertical-align: inherit&quot;&gt;&lt;b&gt;交换机1&lt;/b&gt;&lt;/font&gt;&lt;/font&gt;" style="fontColor=#0066CC;verticalAlign=top;verticalLabelPosition=bottom;labelPosition=center;align=center;html=1;outlineConnect=0;fillColor=#CCCCCC;strokeColor=#6881B3;gradientColor=none;gradientDirection=north;strokeWidth=2;shape=mxgraph.networks.hub;" parent="1" vertex="1">
          <mxGeometry x="220" y="250" width="70" height="20" as="geometry" />
        </mxCell>
        <mxCell id="mvvto3tUJ9cvRBS9fWSG-3" value="&lt;b&gt;&lt;font style=&quot;vertical-align: inherit&quot;&gt;&lt;font style=&quot;vertical-align: inherit&quot;&gt;交换机2&lt;/font&gt;&lt;/font&gt;&lt;/b&gt;" style="fontColor=#0066CC;verticalAlign=top;verticalLabelPosition=bottom;labelPosition=center;align=center;html=1;outlineConnect=0;fillColor=#CCCCCC;strokeColor=#6881B3;gradientColor=none;gradientDirection=north;strokeWidth=2;shape=mxgraph.networks.hub;" parent="1" vertex="1">
          <mxGeometry x="414" y="250" width="70" height="20" as="geometry" />
        </mxCell>
        <mxCell id="mvvto3tUJ9cvRBS9fWSG-4" value="&lt;b&gt;&lt;font style=&quot;vertical-align: inherit&quot;&gt;&lt;font style=&quot;vertical-align: inherit&quot;&gt;交换机3&lt;/font&gt;&lt;/font&gt;&lt;/b&gt;" style="fontColor=#0066CC;verticalAlign=top;verticalLabelPosition=bottom;labelPosition=center;align=center;html=1;outlineConnect=0;fillColor=#CCCCCC;strokeColor=#6881B3;gradientColor=none;gradientDirection=north;strokeWidth=2;shape=mxgraph.networks.hub;" parent="1" vertex="1">
          <mxGeometry x="320" y="320" width="70" height="20" as="geometry" />
        </mxCell>
        <mxCell id="mvvto3tUJ9cvRBS9fWSG-5" value="&lt;b&gt;&lt;font style=&quot;vertical-align: inherit&quot;&gt;&lt;font style=&quot;vertical-align: inherit&quot;&gt;&lt;font style=&quot;vertical-align: inherit&quot;&gt;&lt;font style=&quot;vertical-align: inherit&quot;&gt;交换机5&lt;/font&gt;&lt;/font&gt;&lt;/font&gt;&lt;/font&gt;&lt;/b&gt;" style="fontColor=#0066CC;verticalAlign=top;verticalLabelPosition=bottom;labelPosition=center;align=center;html=1;outlineConnect=0;fillColor=#CCCCCC;strokeColor=#6881B3;gradientColor=none;gradientDirection=north;strokeWidth=2;shape=mxgraph.networks.hub;" parent="1" vertex="1">
          <mxGeometry x="424" y="390" width="70" height="20" as="geometry" />
        </mxCell>
        <mxCell id="mvvto3tUJ9cvRBS9fWSG-6" value="&lt;b&gt;&lt;font style=&quot;vertical-align: inherit&quot;&gt;&lt;font style=&quot;vertical-align: inherit&quot;&gt;交换机4&lt;/font&gt;&lt;/font&gt;&lt;/b&gt;" style="fontColor=#0066CC;verticalAlign=top;verticalLabelPosition=bottom;labelPosition=center;align=center;html=1;outlineConnect=0;fillColor=#CCCCCC;strokeColor=#6881B3;gradientColor=none;gradientDirection=north;strokeWidth=2;shape=mxgraph.networks.hub;" parent="1" vertex="1">
          <mxGeometry x="210" y="390" width="70" height="20" as="geometry" />
        </mxCell>
        <mxCell id="mvvto3tUJ9cvRBS9fWSG-7" value="&lt;font style=&quot;vertical-align: inherit&quot;&gt;&lt;font style=&quot;vertical-align: inherit&quot;&gt;&lt;b&gt;&lt;font style=&quot;vertical-align: inherit&quot;&gt;&lt;font style=&quot;vertical-align: inherit&quot;&gt;网关1&lt;/font&gt;&lt;/font&gt;&lt;/b&gt;&lt;/font&gt;&lt;/font&gt;" style="shape=mxgraph.bpmn.shape;html=1;verticalLabelPosition=bottom;labelBackgroundColor=#ffffff;verticalAlign=top;align=center;perimeter=rhombusPerimeter;background=gateway;outlineConnect=0;outline=throwing;symbol=general;" parent="1" vertex="1">
          <mxGeometry x="230" y="150" width="50" height="50" as="geometry" />
        </mxCell>
        <mxCell id="mvvto3tUJ9cvRBS9fWSG-8" value="&lt;b&gt;&lt;font style=&quot;vertical-align: inherit&quot;&gt;&lt;font style=&quot;vertical-align: inherit&quot;&gt;&lt;font style=&quot;vertical-align: inherit&quot;&gt;&lt;font style=&quot;vertical-align: inherit&quot;&gt;网关3&lt;/font&gt;&lt;/font&gt;&lt;/font&gt;&lt;/font&gt;&lt;/b&gt;" style="shape=mxgraph.bpmn.shape;html=1;verticalLabelPosition=bottom;labelBackgroundColor=#ffffff;verticalAlign=top;align=center;perimeter=rhombusPerimeter;background=gateway;outlineConnect=0;outline=throwing;symbol=general;" parent="1" vertex="1">
          <mxGeometry x="400" y="150" width="50" height="50" as="geometry" />
        </mxCell>
        <mxCell id="mvvto3tUJ9cvRBS9fWSG-9" value="&lt;b&gt;&lt;font style=&quot;vertical-align: inherit&quot;&gt;&lt;font style=&quot;vertical-align: inherit&quot;&gt;&lt;font style=&quot;vertical-align: inherit&quot;&gt;&lt;font style=&quot;vertical-align: inherit&quot;&gt;网关2&lt;/font&gt;&lt;/font&gt;&lt;/font&gt;&lt;/font&gt;&lt;/b&gt;" style="shape=mxgraph.bpmn.shape;html=1;verticalLabelPosition=bottom;labelBackgroundColor=#ffffff;verticalAlign=top;align=center;perimeter=rhombusPerimeter;background=gateway;outlineConnect=0;outline=throwing;symbol=general;" parent="1" vertex="1">
          <mxGeometry x="310" y="150" width="50" height="50" as="geometry" />
        </mxCell>
        <mxCell id="mvvto3tUJ9cvRBS9fWSG-10" value="&lt;b&gt;&lt;font style=&quot;vertical-align: inherit&quot;&gt;&lt;font style=&quot;vertical-align: inherit&quot;&gt;&lt;font style=&quot;vertical-align: inherit&quot;&gt;&lt;font style=&quot;vertical-align: inherit&quot;&gt;网关4&lt;/font&gt;&lt;/font&gt;&lt;/font&gt;&lt;/font&gt;&lt;/b&gt;" style="shape=mxgraph.bpmn.shape;html=1;verticalLabelPosition=bottom;labelBackgroundColor=#ffffff;verticalAlign=top;align=center;perimeter=rhombusPerimeter;background=gateway;outlineConnect=0;outline=throwing;symbol=general;" parent="1" vertex="1">
          <mxGeometry x="494" y="150" width="50" height="50" as="geometry" />
        </mxCell>
        <mxCell id="mvvto3tUJ9cvRBS9fWSG-11" value="&lt;b&gt;&lt;font style=&quot;vertical-align: inherit&quot;&gt;&lt;font style=&quot;vertical-align: inherit&quot;&gt;&lt;font style=&quot;vertical-align: inherit&quot;&gt;&lt;font style=&quot;vertical-align: inherit&quot;&gt;网关9&lt;/font&gt;&lt;/font&gt;&lt;/font&gt;&lt;/font&gt;&lt;/b&gt;" style="shape=mxgraph.bpmn.shape;html=1;verticalLabelPosition=bottom;labelBackgroundColor=#ffffff;verticalAlign=top;align=center;perimeter=rhombusPerimeter;background=gateway;outlineConnect=0;outline=throwing;symbol=general;" parent="1" vertex="1">
          <mxGeometry x="560" y="470" width="50" height="50" as="geometry" />
        </mxCell>
        <mxCell id="mvvto3tUJ9cvRBS9fWSG-12" value="&lt;b&gt;&lt;font style=&quot;vertical-align: inherit&quot;&gt;&lt;font style=&quot;vertical-align: inherit&quot;&gt;&lt;font style=&quot;vertical-align: inherit&quot;&gt;&lt;font style=&quot;vertical-align: inherit&quot;&gt;网关5&lt;/font&gt;&lt;/font&gt;&lt;/font&gt;&lt;/font&gt;&lt;/b&gt;" style="shape=mxgraph.bpmn.shape;html=1;verticalLabelPosition=bottom;labelBackgroundColor=#ffffff;verticalAlign=top;align=center;perimeter=rhombusPerimeter;background=gateway;outlineConnect=0;outline=throwing;symbol=general;" parent="1" vertex="1">
          <mxGeometry x="210" y="470" width="50" height="50" as="geometry" />
        </mxCell>
        <mxCell id="mvvto3tUJ9cvRBS9fWSG-13" value="&lt;b&gt;&lt;font style=&quot;vertical-align: inherit&quot;&gt;&lt;font style=&quot;vertical-align: inherit&quot;&gt;&lt;font style=&quot;vertical-align: inherit&quot;&gt;&lt;font style=&quot;vertical-align: inherit&quot;&gt;&lt;font style=&quot;vertical-align: inherit&quot;&gt;&lt;font style=&quot;vertical-align: inherit&quot;&gt;网关6&lt;/font&gt;&lt;/font&gt;&lt;/font&gt;&lt;/font&gt;&lt;/font&gt;&lt;/font&gt;&lt;/b&gt;" style="shape=mxgraph.bpmn.shape;html=1;verticalLabelPosition=bottom;labelBackgroundColor=#ffffff;verticalAlign=top;align=center;perimeter=rhombusPerimeter;background=gateway;outlineConnect=0;outline=throwing;symbol=general;" parent="1" vertex="1">
          <mxGeometry x="300" y="470" width="50" height="50" as="geometry" />
        </mxCell>
        <mxCell id="mvvto3tUJ9cvRBS9fWSG-14" value="&lt;b&gt;&lt;font style=&quot;vertical-align: inherit&quot;&gt;&lt;font style=&quot;vertical-align: inherit&quot;&gt;&lt;font style=&quot;vertical-align: inherit&quot;&gt;&lt;font style=&quot;vertical-align: inherit&quot;&gt;网关7&lt;/font&gt;&lt;/font&gt;&lt;/font&gt;&lt;/font&gt;&lt;/b&gt;" style="shape=mxgraph.bpmn.shape;html=1;verticalLabelPosition=bottom;labelBackgroundColor=#ffffff;verticalAlign=top;align=center;perimeter=rhombusPerimeter;background=gateway;outlineConnect=0;outline=throwing;symbol=general;" parent="1" vertex="1">
          <mxGeometry x="380" y="470" width="50" height="50" as="geometry" />
        </mxCell>
        <mxCell id="mvvto3tUJ9cvRBS9fWSG-15" value="&lt;b&gt;&lt;font style=&quot;vertical-align: inherit&quot;&gt;&lt;font style=&quot;vertical-align: inherit&quot;&gt;&lt;font style=&quot;vertical-align: inherit&quot;&gt;&lt;font style=&quot;vertical-align: inherit&quot;&gt;网关8&lt;/font&gt;&lt;/font&gt;&lt;/font&gt;&lt;/font&gt;&lt;/b&gt;" style="shape=mxgraph.bpmn.shape;html=1;verticalLabelPosition=bottom;labelBackgroundColor=#ffffff;verticalAlign=top;align=center;perimeter=rhombusPerimeter;background=gateway;outlineConnect=0;outline=throwing;symbol=general;" parent="1" vertex="1">
          <mxGeometry x="460" y="470" width="50" height="50" as="geometry" />
        </mxCell>
        <mxCell id="mvvto3tUJ9cvRBS9fWSG-16" value="" style="endArrow=none;html=1;exitX=0.95;exitY=0.05;exitDx=0;exitDy=0;exitPerimeter=0;entryX=0.5;entryY=1;entryDx=0;entryDy=0;" parent="1" source="mvvto3tUJ9cvRBS9fWSG-3" target="mvvto3tUJ9cvRBS9fWSG-10" edge="1">
          <mxGeometry width="50" height="50" relative="1" as="geometry">
            <mxPoint x="520" y="320" as="sourcePoint" />
            <mxPoint x="570" y="270" as="targetPoint" />
          </mxGeometry>
        </mxCell>
        <mxCell id="mvvto3tUJ9cvRBS9fWSG-17" value="" style="endArrow=none;html=1;exitX=0.5;exitY=0;exitDx=0;exitDy=0;exitPerimeter=0;entryX=0.5;entryY=1;entryDx=0;entryDy=0;" parent="1" source="mvvto3tUJ9cvRBS9fWSG-3" target="mvvto3tUJ9cvRBS9fWSG-8" edge="1">
          <mxGeometry width="50" height="50" relative="1" as="geometry">
            <mxPoint x="490.5" y="261" as="sourcePoint" />
            <mxPoint x="529" y="210" as="targetPoint" />
          </mxGeometry>
        </mxCell>
        <mxCell id="mvvto3tUJ9cvRBS9fWSG-18" value="" style="endArrow=none;html=1;exitX=0.95;exitY=0.05;exitDx=0;exitDy=0;exitPerimeter=0;entryX=0.25;entryY=0.75;entryDx=0;entryDy=0;entryPerimeter=0;" parent="1" source="mvvto3tUJ9cvRBS9fWSG-2" target="mvvto3tUJ9cvRBS9fWSG-9" edge="1">
          <mxGeometry width="50" height="50" relative="1" as="geometry">
            <mxPoint x="500.5" y="271" as="sourcePoint" />
            <mxPoint x="539" y="220" as="targetPoint" />
          </mxGeometry>
        </mxCell>
        <mxCell id="mvvto3tUJ9cvRBS9fWSG-19" value="" style="endArrow=none;html=1;entryX=0.25;entryY=0.75;entryDx=0;entryDy=0;entryPerimeter=0;" parent="1" source="mvvto3tUJ9cvRBS9fWSG-2" target="mvvto3tUJ9cvRBS9fWSG-7" edge="1">
          <mxGeometry width="50" height="50" relative="1" as="geometry">
            <mxPoint x="296.5" y="261" as="sourcePoint" />
            <mxPoint x="332.5" y="197.5" as="targetPoint" />
          </mxGeometry>
        </mxCell>
        <mxCell id="mvvto3tUJ9cvRBS9fWSG-20" value="" style="endArrow=none;html=1;entryX=0.9;entryY=1;entryDx=0;entryDy=0;entryPerimeter=0;" parent="1" source="mvvto3tUJ9cvRBS9fWSG-4" target="mvvto3tUJ9cvRBS9fWSG-2" edge="1">
          <mxGeometry width="50" height="50" relative="1" as="geometry">
            <mxPoint x="306.5" y="271" as="sourcePoint" />
            <mxPoint x="342.5" y="207.5" as="targetPoint" />
          </mxGeometry>
        </mxCell>
        <mxCell id="mvvto3tUJ9cvRBS9fWSG-21" value="" style="endArrow=none;html=1;exitX=0.5;exitY=0;exitDx=0;exitDy=0;exitPerimeter=0;" parent="1" source="mvvto3tUJ9cvRBS9fWSG-6" target="mvvto3tUJ9cvRBS9fWSG-4" edge="1">
          <mxGeometry width="50" height="50" relative="1" as="geometry">
            <mxPoint x="353" y="330" as="sourcePoint" />
            <mxPoint x="293" y="280" as="targetPoint" />
          </mxGeometry>
        </mxCell>
        <mxCell id="mvvto3tUJ9cvRBS9fWSG-22" value="" style="endArrow=none;html=1;entryX=0.75;entryY=0.25;entryDx=0;entryDy=0;entryPerimeter=0;" parent="1" source="mvvto3tUJ9cvRBS9fWSG-5" target="mvvto3tUJ9cvRBS9fWSG-14" edge="1">
          <mxGeometry width="50" height="50" relative="1" as="geometry">
            <mxPoint x="255" y="400" as="sourcePoint" />
            <mxPoint x="346.66666666666674" y="350" as="targetPoint" />
          </mxGeometry>
        </mxCell>
        <mxCell id="mvvto3tUJ9cvRBS9fWSG-23" value="" style="endArrow=none;html=1;exitX=0.5;exitY=1;exitDx=0;exitDy=0;exitPerimeter=0;entryX=0.75;entryY=0.25;entryDx=0;entryDy=0;entryPerimeter=0;" parent="1" source="mvvto3tUJ9cvRBS9fWSG-6" target="mvvto3tUJ9cvRBS9fWSG-12" edge="1">
          <mxGeometry width="50" height="50" relative="1" as="geometry">
            <mxPoint x="265" y="410" as="sourcePoint" />
            <mxPoint x="356.66666666666674" y="360" as="targetPoint" />
          </mxGeometry>
        </mxCell>
        <mxCell id="mvvto3tUJ9cvRBS9fWSG-24" value="" style="endArrow=none;html=1;exitX=0.25;exitY=0.25;exitDx=0;exitDy=0;exitPerimeter=0;entryX=0.9;entryY=1;entryDx=0;entryDy=0;entryPerimeter=0;" parent="1" source="mvvto3tUJ9cvRBS9fWSG-13" target="mvvto3tUJ9cvRBS9fWSG-6" edge="1">
          <mxGeometry width="50" height="50" relative="1" as="geometry">
            <mxPoint x="275" y="420" as="sourcePoint" />
            <mxPoint x="366.66666666666674" y="370" as="targetPoint" />
          </mxGeometry>
        </mxCell>
        <mxCell id="mvvto3tUJ9cvRBS9fWSG-25" value="" style="endArrow=none;html=1;entryX=0.9;entryY=1;entryDx=0;entryDy=0;entryPerimeter=0;" parent="1" source="mvvto3tUJ9cvRBS9fWSG-15" target="mvvto3tUJ9cvRBS9fWSG-5" edge="1">
          <mxGeometry width="50" height="50" relative="1" as="geometry">
            <mxPoint x="285" y="430" as="sourcePoint" />
            <mxPoint x="376.66666666666674" y="380" as="targetPoint" />
          </mxGeometry>
        </mxCell>
        <mxCell id="mvvto3tUJ9cvRBS9fWSG-26" value="" style="endArrow=none;html=1;exitX=1;exitY=0.5;exitDx=0;exitDy=0;exitPerimeter=0;entryX=0;entryY=0.5;entryDx=0;entryDy=0;entryPerimeter=0;" parent="1" source="mvvto3tUJ9cvRBS9fWSG-6" target="mvvto3tUJ9cvRBS9fWSG-5" edge="1">
          <mxGeometry width="50" height="50" relative="1" as="geometry">
            <mxPoint x="295" y="440" as="sourcePoint" />
            <mxPoint x="420" y="400" as="targetPoint" />
          </mxGeometry>
        </mxCell>
        <mxCell id="mvvto3tUJ9cvRBS9fWSG-27" value="" style="endArrow=none;html=1;exitX=1;exitY=0.5;exitDx=0;exitDy=0;exitPerimeter=0;entryX=0;entryY=0.5;entryDx=0;entryDy=0;entryPerimeter=0;" parent="1" source="mvvto3tUJ9cvRBS9fWSG-2" target="mvvto3tUJ9cvRBS9fWSG-3" edge="1">
          <mxGeometry width="50" height="50" relative="1" as="geometry">
            <mxPoint x="305" y="450" as="sourcePoint" />
            <mxPoint x="396.66666666666674" y="400" as="targetPoint" />
          </mxGeometry>
        </mxCell>
        <mxCell id="mvvto3tUJ9cvRBS9fWSG-28" value="" style="endArrow=none;html=1;exitX=1;exitY=0.5;exitDx=0;exitDy=0;exitPerimeter=0;entryX=0.25;entryY=0.25;entryDx=0;entryDy=0;entryPerimeter=0;" parent="1" source="mvvto3tUJ9cvRBS9fWSG-5" target="mvvto3tUJ9cvRBS9fWSG-11" edge="1">
          <mxGeometry width="50" height="50" relative="1" as="geometry">
            <mxPoint x="315" y="460" as="sourcePoint" />
            <mxPoint x="406.66666666666674" y="410" as="targetPoint" />
          </mxGeometry>
        </mxCell>
        <mxCell id="k7AsSKgwomYQhgERKO9k-1" value="&lt;font style=&quot;vertical-align: inherit&quot;&gt;&lt;font style=&quot;vertical-align: inherit&quot;&gt;&lt;font style=&quot;vertical-align: inherit&quot;&gt;&lt;font style=&quot;vertical-align: inherit&quot;&gt;&lt;font style=&quot;vertical-align: inherit&quot;&gt;&lt;font style=&quot;vertical-align: inherit&quot;&gt;$$ \frac{a + b + c + d} {5} = x $$&lt;/font&gt;&lt;/font&gt;&lt;/font&gt;&lt;/font&gt;&lt;/font&gt;&lt;/font&gt;" style="text;html=1;align=center;verticalAlign=middle;resizable=0;points=[];autosize=1;" parent="1" vertex="1">
          <mxGeometry x="220" y="30" width="180" height="20" as="geometry" />
        </mxCell>
        <mxCell id="k7AsSKgwomYQhgERKO9k-2" value="Text" style="text;html=1;align=center;verticalAlign=middle;resizable=0;points=[];autosize=1;" parent="1" vertex="1">
          <mxGeometry x="500" y="40" width="40" height="20" as="geometry" />
        </mxCell>
        <mxCell id="ucJcCLavaTVOP6PVcXHW-2" value="" style="rounded=0;whiteSpace=wrap;html=1;" vertex="1" parent="1">
          <mxGeometry x="265" y="667" width="205" height="300" as="geometry" />
        </mxCell>
        <mxCell id="ucJcCLavaTVOP6PVcXHW-3" value="" style="verticalLabelPosition=bottom;html=1;verticalAlign=top;align=center;shape=mxgraph.floorplan.doorOverhead;rotation=90;" vertex="1" parent="1">
          <mxGeometry x="156" y="761" width="310" height="108" as="geometry" />
        </mxCell>
        <mxCell id="ucJcCLavaTVOP6PVcXHW-4" value="" style="verticalLabelPosition=bottom;html=1;verticalAlign=top;align=center;shape=mxgraph.floorplan.doorOverhead;rotation=90;flipH=0;flipV=1;" vertex="1" parent="1">
          <mxGeometry x="268.5" y="763.5" width="310" height="103" as="geometry" />
        </mxCell>
        <mxCell id="ucJcCLavaTVOP6PVcXHW-5" value="" style="rounded=0;whiteSpace=wrap;html=1;rotation=90;" vertex="1" parent="1">
          <mxGeometry x="320" y="810" width="60" height="10" as="geometry" />
        </mxCell>
        <mxCell id="ucJcCLavaTVOP6PVcXHW-6" value="" style="rounded=0;whiteSpace=wrap;html=1;rotation=90;" vertex="1" parent="1">
          <mxGeometry x="350" y="810" width="60" height="10" as="geometry" />
        </mxCell>
        <mxCell id="ucJcCLavaTVOP6PVcXHW-7" value="" style="verticalLabelPosition=bottom;html=1;verticalAlign=top;align=center;shape=mxgraph.floorplan.window;" vertex="1" parent="1">
          <mxGeometry x="338" y="661" width="60" height="10" as="geometry" />
        </mxCell>
        <mxCell id="ucJcCLavaTVOP6PVcXHW-8" value="" style="rounded=1;whiteSpace=wrap;html=1;rotation=90;" vertex="1" parent="1">
          <mxGeometry x="491.5" y="785" width="55" height="35" as="geometry" />
        </mxCell>
        <mxCell id="ucJcCLavaTVOP6PVcXHW-11" style="edgeStyle=orthogonalEdgeStyle;rounded=0;orthogonalLoop=1;jettySize=auto;html=1;exitX=1;exitY=0.5;exitDx=0;exitDy=0;entryX=0;entryY=0.5;entryDx=0;entryDy=0;endArrow=none;endFill=0;strokeWidth=2;strokeColor=#0000FF;" edge="1" parent="1" source="ucJcCLavaTVOP6PVcXHW-10" target="ucJcCLavaTVOP6PVcXHW-8">
          <mxGeometry relative="1" as="geometry" />
        </mxCell>
        <mxCell id="ucJcCLavaTVOP6PVcXHW-13" style="edgeStyle=orthogonalEdgeStyle;rounded=0;orthogonalLoop=1;jettySize=auto;html=1;exitX=0.75;exitY=1;exitDx=0;exitDy=0;entryX=0.2;entryY=0.067;entryDx=0;entryDy=0;strokeWidth=2;endArrow=none;endFill=0;strokeColor=#0000FF;entryPerimeter=0;" edge="1" parent="1" source="ucJcCLavaTVOP6PVcXHW-10" target="ucJcCLavaTVOP6PVcXHW-12">
          <mxGeometry relative="1" as="geometry">
            <Array as="points">
              <mxPoint x="436" y="785" />
              <mxPoint x="430" y="785" />
            </Array>
          </mxGeometry>
        </mxCell>
        <mxCell id="ucJcCLavaTVOP6PVcXHW-10" value="" style="shape=image;verticalLabelPosition=bottom;labelBackgroundColor=default;verticalAlign=top;aspect=fixed;imageAspect=0;image=data:image/png,iVBORw0KGgoAAAANSUhEUgAAAJoAAABUCAYAAAB6HS7TAAAgAElEQVR4Ac3debRnWVUn+JcZ8xt/v/d7vzfPQ4wZOUVkZAw5D5AJKYkmkwkJmZBAQqIgAg44IIIiCqmWEw4LQXBoXU7lWI0FDmULdmFbpUWx1KarELrFKl3W6vaP7lruXp/78ht5+fEiIxjs1bnWzn3O3vvsc84+37vPufd374uh2uG/f/qnf6o2MRmsp1nkgzaRX4i37S9U1rata/tqFI//ry3/Ysptn09W/kL74PMLbfulaPdkc7pU3YXGcbH2Qx/96Efr93//9+sXfuEX6rd/+7fr13/91+vXfu3X6qd+6qfql3/5l+u9731v/eqv/mr9zM/8TP3kT/5kY8f2/e9/f/3Kr/xKvfvd725sfuInfqJ+7Md+rH70R3+03vrWt9b3f//317d/+7fXN33TN9UP/MAP1Pd93/fVG9/4xvP0+te/vl7xilfUG97whnrzm99cr3rVq+qVr3xlPfroo3X//ffXl3/5l9cDDzxQz3rWs+ree+9tZM997nPrK77iKxoZ+fOf//y677776mlPe1o9/elPr7vuuque8pSnfA7deeeddccdd9Ttt9/e0K233lq33HJLQzfddFPdeOONDd1www117ty5OnPmzHk6ffp0ha6//vpCp06dquuuu66hEydOFLr22ms/i6655poKXX311YWuuuqquvLKKxu64oorCh07dqyho0ePFjp8+HBDBw8erK2trYY2NzdrkDY2Nmp9fb3W1tZqZWWllpeXG1paWqpLocXFxUILCws1Pz9fc3NzNTs729DMzEyh6enpz6J+v1+DNDU1Vb1eryYnJ6vb7X4OkYvn0Dvf+c46fvx4M+j2AA3cICLLoFLP5MjZqrMPZeCxjy92IUFaXV09P2E2CYB2/Korh0eWPiPHI8vY1NP/pXD2l0qZw4W4eZkfAog2Rc7mQu0vRX6pY72QXeIqdhejrCtQDlLWGlADUoAEQGB1MQ3JOgxN3uQSGFeT4LjCcFcQmStLHSfDXX1kuQoPHTrU2KauHZl6KFcuH2T0bZ+pxxf/yuy11SacLAvLB8qYU2fPBkWHR89HAKCM6DJn7dWjIxevgIU8fhPD2Lf9ZF78xSdfyuajnD7iJ2PhP5SxPhnPfC8E2p0AmAtyEHg7AQ1uEOAlAwIbcKVO3wDtu77ru5oAC4CJSt8mbcLqKLqUozty5EiT/m0BSfsJKl1kaUfGF47I+SJDCXbs0287+IKuHlkWs73QWfD4jC157AcXUZ09fXj6yeK2+6Ajt1gWNKCJTcaQePCfviNji7TV52C/AEKfdvFJ9mQAiy4XwRcLtIAM3ymbtbNYshqwyWo4fAy97W1vawImcBYYAJQDhDboBKINBjbqHGlrYngCkyCmDXs6frKIygEWO8QGKbNTbnN+Q+R8CK6rMbYWJX7YxJ48C5A+6AAmvujJ9I+TK5NrQxauz/RlHHTqkWkbSn/xpx7Z4LzJY8cnCoDif5C39coAhme+g4C71Iz2ZEADPFkrmSzZLBkN2Bqgfed3fmczEBMNuExQWeACJmBA6iF2ZFKjwJgQP9rhdLKaemTk7KOLf4Phj10yYXxFTpc+cZT2AmoMsdFWPQuGZ8HaMnYCrh25xeM3NgGdunL6ia/Mmb5N/LAh0ybj1Y8+o4s89urxrcy+rVO+EOkH0RtXxosPgkx9EGg7bZttkO2U0QAMmNwUAFkbdJE1QPuO7/iOZnBZVDyUBTdhwDBpPJRFZm9yWazYxic5H+raBGjKdOTaWBRlFHt+I7MAsc8iqIeMN774bvsj54uP+OfDWMgyl4xdW/rwLD5OlnrGEzu8TXyEIk8982r3k7HxzzedceN05JlHxhAecKm3QfbPCTTASvbCAY8sWyeZ2A55FGEgBpfJZOImyggloBbC4gQssTV5utgrZ9HC+VAOIHCUNvSxwcktzmD7yMj1H2q3z4KR0eNZaLqU9S8L0IuBPtmHs4v/lNnFX3zh6bNtT8a2rVMPsY1fPHLxNDZ6/WmfNWKnPEjmISuRa4/IAsA2ZxcAymzquEyn7GYAT0ZTTxmYkG0Tz3YZHvDJaMrWqQGagWUxw03S5AIEcmQB2iBLMDwnotMmdmkbLohskGDhZIKZdgl0OBvt2WcMKWsjkPGVsbR9slHXVjmkT3J189c2caBjr56+2CqnTeqxyRzin21kbNMfbk6ZS3Tk2qR92oanP/rYsjf/jAFwgEOdDQrQgI484GMXe+WdttL2nScQqgNOslbuNmWtZLU2yGypwOnZ4dBb3vKWZgAC3Z68sokAlcCYIFkCYeLK2sXGRKInH/SZQAZg2glGgt1egASKj5TTvzpfuWrb4yaPf/L4jL3x6Q/Rk/OnnDmFZy7xoc4u89I2lDYZa2zpxUW79I3HDudPH5GxReYXv+kHZ5d6AAQ0wKBOn9gAEB3AIaDCtU8bsmS1ZDKylIFFHQey6ALENuCS4XJeA8DzQNOpiSagAJCgGLS6YJg0G/bKmSydicWHw582CRgfCRjOHpEjduQobeizQMp8Z4H0S8Y+Y6GLTXzh7Xkot33ETp/8GDMZP2R424dyxhrb1MP5zwWnvbIFNU86dii++cz8+CRPPX60NT71QRk5Ev9kL/WASTlAY6McHuABjnLaA2cyHB1KRgOqAA3w1GUxwBrcOmU0evMa8vNPe/AJhk6zmCafIAgMImOboAiGn1zIlbMobNJeOXUyQUh75fi1EAluyuzZoiyUgLGLj7bOVaQvfuN7sP/oXRgZb/zxxT+5svknBhkT2/gki7/MI+MSX3rUHnP6JE8bPtXNl0w9svSlnnllbngApD91dmSpJ4MBDX2yXRtYdOxQG2QpJ4tlC21vo0ClDmAhYBSH5pcBAzIpAtyEBN8gTToB9lOV3+sSBDqkXYKAs9feYie7pQ9tybThi61y7PkzBnLnPu3IAjRlMnU2GQ+ZiyNt6Ywfp8MRfRaBPX/GGX/qgqwNMjakTJd58mPM2lkovvglZ5/x4trhaUuvTM5vyurt/vgnSyJgF1Doh8+QvgMoPpVj2y6LSQgwUgaIzANPFkv2yjaKAxGgBXTZUmW0PNJg47dPwBX3oW/7tm9rAtsOhklQWkTgStmC+PGYPJSgmjBbZNLqdNomgGQp47mBCPDo9ZEgKvMnGGkr2AEl/8p+1FYWUJQxGWPmFZ3x8G8xjhwFMot5sK6++sra3PSQd5u2ttxZyhyyGsABi8X1XGu1kc3Pz54fV8Zn7kC3tr7a2PJ/1VXH6+AhQHji4G4ebI3v2DFxAlgH9OXGbuvg9jzMJWTs+hEPF4P2/IRyoZEDCyCQmTtZ5MlOAIL4Arqcq9SzVQZQ2rDhAyePTt1ZTF1GQ+oTExPNGIy72ToF3oIZcEBmcgwMmExAUCZloch1vB2sJx55aAdEacMu7RKsyHJF07f9A1l802mXqw/Xjr1xRs/m5MmTzbiALItPr0yvX4E3X4t78OBmAwJAOnzkYFMGprX1lW0d/UGZShY1j8264vg2MI5fuf2g2nj056JwIQL+VVe5SI41tldcASyHG8Dp15sfjhnszPPYFUfr2BVH6uprrqxrT1zdEIA2umPHGvv4zTrlQmfTJjEzx4xFfLQRKzFga220B0JvoiiLjT7ET50tP/y14w6EQBQQAyqAkSkDa7ZPcoDV39Cb3vSmxhmHyAAtIm6BdCooAUYWjL5d3l64Y48Heft1GAMXVAFFXrE5e/ZsMznlvH7jNRITpkNe1dEnvXbKd9xxx2e1Z6edwJiIfpTZGjMy/iwm//zpl536qVPX1enTp+rcuTMNnTh5Td108w11w418X1+33npzUyc7e/b0Np07XadOnSy2eBZKPHJxbvOjdfSYY4ALcmsbxAe3Y2xcYi3O27QNZtlTtlxbsxVv/85pkS2ujJIMYpEtajILTm+xLfTglpYsY1uzneWVHn47nU4NDw83NDIyUgcOHKj9+/c32Yg9MAJLLmq+9K0P8jbQAjjj8OZGxiM2DdBMNlc9wAAVbvGyYNEDV64ONt7heupTn1p33313806Yd8Nuu+22Rg4wFjZA40un2iFAdCWR4W3SBxtjMx5t9f3E4jxxJyYYMm8mnkUxcYFIoD+Xu/p2poUF28Bn68iWlhZqbn6mIVunPgU0242+0eKixZhvSBu0XV9sxgMcxra9ULM1Ozdd/KWNvszLglpwgLAVAZLzD7CYn3mHs9e3GAFyYmKMdBYfiPbt29f4tKb87tmzpy6//PLatWtX7d27twEb/9rwhRvn+Ph4k93MF+l3J8r4jJuddRz61m/91vOLGYBZVB1YbIuPI1dqrlwp+Oabb24mLBjbwd1GeTvV5mz0peLJvG3+hft2R+YM88XQEz9ptcd08OBWOWchmcqZT5ZiI7bGLE4WcWZmuiYnOw1tbFrcjQaY9Oysi3bAiYCaD0AJgADBOgAOkFhgMsAcHR1tMhZu8fnVFrBkMAACNiDDAdJ60pHxpY1sSJ4LFsjoQqkDGhl7tjA09M3f/M3NJGQLE0KcApRJApRJZq/HETAigzJxE3YFKWuPyL7UFN878c8fcF8Y0ADG+Q6AsijGI3bmq3z4yKECmsWl+SZbPQHm7bcwxNTFa8wrK7Ym5+PHwbm10bS1JmLKZ2IMIGQABFDAAFxI//RZIxwgAZA8W6wywAEifUAm2+3evbsuu+yyRsY3MA4NDTV8bGysAQ5AGY9x8MFvG3zGlvHRGceQV611DHUEBisA2bZwE6bHBUaQtKGD2gAM3wkA//wyiysrbWeAAM44n5yeuMsEGvQEID43y7lBsLXJOO4k2Qq0wANDMpX4bW1t1vSMtxp6zTY6OztTi0sLTXwyJoug7fy8Ld5izVR/eqqpL68sNevQzhbiq61FFXdgwdkAHT0duayClMmMjZ3sZeuU3fQNhICGgCzExplNXR/02vClTdZchuMH0WVOyWpkktWQ9/gFBgEPoFEAVWThgKjMBvAchDl0BkjHQHWxLLYT8AKOS+c7geIJoBmDMRmbqy8XSBZ5m38u0BrAbW373txarzatb6zW0vJCra4t1+kzpxqgOYfybyETJwthcSwMACCLZtEttnEZjzqSFQGAjXMY8FoLi0cmk8hY/Bo3Pbu0jW+LzLfM5IBv25ORlNknC5HnTEaP1NsyWQ2RaQtwxhBQAZi+Ute3LBawmacy2ecADYCQIABarlIyEwzAgMzWKsgcBWgXA1j0/18AzaKEBMNiGidAhJLFBrlHGO7+PPvaiTzmcKfam+o2cbDggi5G2UrdJJEBAcAhsbJoFoBdgEYGTLjFjE683GgBDls6dnzxm7tFWxzfFheYJAS7jXIbPMlyslNb3gYaOQKsttz2aQz6ASpgD6mbk/7FGk9GY9MA7eu+7uuawANWyECVcXeGuVIBTRklo+k86A6QLsa/eKDtlM22t07BtVAuAl90/fRP/3S9733vqxe/+MVNgATBglnUpSVPuXs1NzfTZC53mTLY8rKtwaHXQXqkul3g8Nhgvnq9bk10xpoF37dvTxN4Cy6DWXyPUHzx5Suxn//5n6977rmn0Vk0ALElySjJNu2tCgByTrLYz3jGM+oDH/hAIzPmLD6wmaN+ZcKAL34tsnUh12+bAiRjiTyyJ+OAFvC4gFzELtyADNBCwBhQ0zfP0b7+67++ARXgSNeII0Bz5ZMDGLky8CWzAaEA6FSbiwEs+n8eoAHf9oNcIPJZ3sc//vHm0YrP9YDO53nkjz32WP3gD/5g88zuscfeWd/4xq+vsfGxet/73ttcja/92q+pkydP1GPf+456xSsfqfvvf14dPnyoXvCC++t//MBv17Ofc1+z6KOjww1wLJBFw32+95u/+ZvNJ4ovfelLm6ue7hu/8Rubrcinfj/7sz/bfBroE0a/NfsSTQbyyaFnfB4R/cZv/EY985nPLJ9DirHPAy2gzxNf+MIXNuADWpTzVcYQQGZcARQ7scERufZPBrDo2kCTWADIRS1juXiTUWU0gMPJcLgZktEsfM4YQISS3fLAE8ACPA0RpAZoOkWXArgAzQBTvvSzmZ+ZdspoZNuPDGSXL/uyL6t//Md/bLKKhX/729/ejM/FYdvfnuPheuCB59cv//Iv1tFjR+qP/ugPmwe1v/Irv1RveMPr6yMf+XC94Q2vq/e9/711773PqIceerDe8553l4O6LOdmwDnGgoXLany7yfqDP/iD+pZv+ZYmk/mpz2L59vR3f/d3m+9WfRjkWeW73vWuJvOxdSfPx0c+8pHm2eSHP/zhBgguZsB1kfgOVZ8yWECWzBhQ7cRz5moDMEC6GDf2gAnIkpACLDLribKNymrnM5oPeTUSHGcMYAIyIAKugEfZVQdg2To9hQc04AKY2CZz5SDOL6Kn2z4Dbv9m2Py+53vKxYVaWpiv1eXFWlvx8t5qrW8sN7S5tVpHjm7VxubKeVnuDrX3MNQjh9XVlWaiFsq287GPfayZj0VyjjFp8zNmiwR0tphf+qVfaj6GtuV98IMfbD6Ufsc73tF8WP2iF72oyTTAaaF9IO0qFh8Po7PAMgXZj//4j9erX/3qBlQPPfRQ/d7v/V7T73d/93c3Mh9GA4/M+iM/8iP17Gc/u9naZSxZT4z5+cQnPtEA7c///M8boDnzfepTn6pv+IZvOP98K1tlMlRAtxPIyHYC04XkbVsABbQASTzFEqBkN+tMJi4BXrZRMll6yNaZTABMgABoOYsBoHJkFgpo1DlwR5UOdA5wfBgAOSJXp1vxA66z0cx09VaWGhpfnavJ9aXqb63X1OZW9bcO1fjSSk2tbdbcwcM1tbxevcXVWjl4tPqrG7WwsVkHNxdra32tDvrZ7JiD73LNzc02YHblOSv58MZZJlefsmwgg/zQD/1QM37nHBeP54mC9bVf+7XNOIHRLxwyCHCYJ2DZ1mRMgQcyiw3YFiYLoj/bNHtnLjqZyjlRLMXZV/e+7ld3EfAno9nmtdeG3ILpx9f2QK5v4Eg2a4PsYkDbCYABVHSpG4/56JtuEGhiFXBZ36xzshnAASadhDT0ute9rrnKXUnJbEAEUAIiQOTAiCeruZNIRms7BTKA0h5vD0anq+trtbm1VdOANjNd054fbS7W+rGDtX7sUK16Tefw0VreOlj9hcXqzszWzNxira5t1ubGoVpcXqtlP/RvLtehrc1at10vLtfC41eY7GqcxgQcydImbSwyWDKBsgABoLOKMmC4QpUtKiBqa145hLMReIsScClbkLaMjcXnm11stfcnHF772tc2bbLIDz74YBNn7Sywtvzp15brcRLbC4GMfXyFa38hYhPdk9kbizFl6wzIsrZihaxvmz4LaLZOwLI4ri7c4gCZOrAgAJPd6FH7jKaT3IHkzsQgspXSJb3Ozy3W0uJKrS8s1I2j3bptcrpunp6qGye7dWZ8rM5NjNctvcm6qTtR58ZH64ax0bp9bKye0unU7aOjdU+vX0+Z6tex5rXl1Zr3sHB6rmamtw+kAY/+zSNAS3CyfeN05mT+yDyTiV1Y0Ru7ILtaAzgLBDABEG5ByPGAQRnQAu5wbWUsdfpQ9IM8vskBapDoUQATHiDtxGODt/Xq/KdPOkCzti5gMUo8wweBlq0T8BxRmq0TiAI2mUiQAypgQwEeDmgyGgeyhs7TkXI6iZwug5uZm69ur18PXH2i3r5xtL5z9VB96/JafdvSRr15eaPesrJZ376yUW9Z3ai3bRyqxzYP1/duHKnH1g/VY6uH6l1bV9Q7to7VnSsbNTnXr1nnuqXVWlneflnPxJK+ldM30ACXceDAg+dCwtVzRbKTHXFXprnQCTbQAUp7MQYXK0AIkCyWhSMPWNQHAZV2bX4xmzbA2oD5QsvmwieKjwBNPHJBBmRk7fUPBrL+biiHZDTgySEf0ADJlUvWPqOxA0iLZkt1aAW0NrB0nsXC02kWq7+4VCO9Xv32Nefqbw5M12fGFup/3j9Xvz+2UH84Ml8f2zNTnxleqr+d2KhP7l+sPx1dqr/cNVWf3D1Tn941W/8w1Kv/vLdfb1o9UsML09VbnK/5mfmabcCw/QpL+td3tr2MAxcYZKzABVAJWuYSsGpPB5jxIWvaUvNcDChkpPaCRxaQWLyUd+IBVnzgkQ3aRx7OdyjAuFSejNy2zxbPpz6MJUATB9hI/MQGyAK0xM8aKJM3QHNOkMFQshcOYO2sFjBGLgsCmrutLFi2GIujkwAtezvZ9MJSDXd79a8Pnqj/MrxQnxxeqA8euaH+p1e9tv74kdfUx6+7o/73A8v1qZGt+g+7FuvfPuvh+uj4Yv3FgYX69L7V+puhbn1i71R959LhGp7tV+/xrdPvhNu0/eAQKEzSmADJWBIQ4w0Yw3MhJFDqmYfYsHODQOZM5wYA0AZBkLrFsXj4ThSQPBmPr/BB2/gNyPA2YC5U3glcbAfl+nMB8ZszmhiKXwAWntgmnrhYkTc3A1/zNV/TpMKcuwBKalRHQBceIMpqbvcdThP8dNReqIBNpxYe9Ry4Jyfr94+frs9MLNef7e/V7zztWfWBl76s/vjFL6u/OnyqPnP5dH1011z9rzc8s/70ze+sTz7vRfWv9k7W3+xfrk8PTdb/tn+23r54qIbdUPDbAHu6ZhqwbZ+jAi6BCGAyBuMiU28HRp0cyVqI3tzMUxZzgwBgIYttIYChvfDthbNIFo1dbAZBM1gPuMKjT398telCoPpi5PrUHx/JaGInHuIqNngoGEjMxJOuOaPJaICULVJZarSF2jrVAUsGC9BiK6MJuCs8h+UsHp5yFtYAOovztafXrQ8dPlGf2jdd/368Vx9/3Rvr373+m+svv+Wt9emTt9bfDs3Ur09t1F9/zw/Xz3/li+u/vf8X6/s3jtVfX96tTw316j/tn6+3L23WiOwyN1tzM95Q6J8HmizW9NXpNMAAGGerkLEi234OuAJiHoMyAGPjzg/QZHD+lR3mzd82YkGAwuLrj7/U9ZUzXQBzMR6AhWfR2+Bqlz9fQGl7sTaxyVYqDgFVm4tH6sAm9urKYuOh9JDnRjmXAZJtQrayrwKZDIeU6YFOnY1zmsAnC+A6QUE3WUAIcBOLc7V7qlsfWD9e/2moUx8b69WfPPRo/ewNT6s/euXr6r8854H6j0MH6o9uurP+/id+qt5/y931D//Dr9UHHnlt/dnQ7vqbXbP1V3v79V1LGy2g9RqgtbdOQPAXHmVd/QMKACgDj4WXuY01V6krzxN82dAr7t5s8bp4LrrXvOY1zbz9yuBBq4Xys5E2HsB6BuZBsb9aSeaZnWdpX/3VX930fzFwRR9w4bYu/EsNtIuBbFCfjBZAhQMSoOGIPECLzDPNIU+xHYgDpmQvwbUQDv65zWfjbjMAtPf6UVfmamctHZEBmavA4qbem5+rA91u/d7y8frk5b36yz1T9ZtTG/Wn+2fqQ4evqH95+nT94oHx+tir31D/z4c+XH/3fe+q//47f1j/129+qH5t91T9w1C3/nrvZL1t+bOBNjM7dT6jmaxAeUb4spe9rHyN74En8Hiynj816qHqC17wgubiMla/I3qS7yn9c57znCaLy+QuKBfe937v91b+LOn3fM/3NPEREwB8+ctf3ly5HoC/5CUvadr706l+igI+2S9AejIekOVxx6UAbRAUn0/9UrPiINACIryd0cRekgkQ8SajBWjAlIyW4NoiAU4w6dSVkYyGZIqACaBCyWSD9e78XO3rdet31o7Vp4dm6y/G5+o/PvLq+o1nPKv+7Bu+rf7Ncx6sP77nvvq/3/YD9cEzd9bfz15V/2r+SNXXvaX+zx96d/23oU59am9nR6B5CKxfoJfuZRYPQWUfv+n+3M/9XAMWfxPOLwH5m7nmJcMBpYsIQP2VJT94y4iOELIcP8p+cfAAFWCA168HQOtv7pI/73nPazKhN0i85uNifDJwtXXJYgFagMemfT77QsAkJju1I29vk7HDQ4NAC5gCNByospsFaOyamwGLAWQyFW7rdEYLF/j2tgl49BZHG2cUW9JOwCJrE9AFaB9YP1b/x9B8/cWu+XrfTbfVf3//z9Vnvuk76l8fOVUfv/Xu+qs7nln/cu5Q/f2u+fpQd60+uHC0PvPSV10S0PTpvJUzlzHaFmUaEzde26eDvYtEHck6jgJZZODT1rktvxJolwOyRbMAO5GFs0h07NtgulA5oGqDbRBgAcROgNlJFqDQtYHa9pPxp33atDkbsRLbgMvFpxyQiS2gZesENrLmZkBGA54Q8AAZcEmJ0KjOKW5rzVYi87laM4Bkr/A2yJTJp+bmarjbrQ9sHK3/OjRRfzc0WZ+4bLL+/WUj9R8uG63/fFmvPtnQZP3t5fP1X7tb9enhpfrr/Qv1icuG6x8vW6q/27da37O0Vbvnp6qzMF0L072andkOwk596hdYgCgAJMt2n7G129Krs7HtowRSmS9ABM6dKGBtg+dCAGvL2/bKFwJHQHGpHLACrgA/F0IbUBcqA5rYARFgOW6hnM/wtiwZDW+eozlHyFAAhGwNFsXkBTvZztapjIDStsk+W2cWS5vQ4MKR9+dmarzXrXdfd0v9L+Or9SfjK/XhycX6aHel/m1vtT4ytVYfmVqvP+5vNPyP+pv17w5eVx/duLb+zcyR+pPZY/WhhSP16IkramymVzOz07U81a+5/jYw2n0CA5KFBEn/Mpf5KQdILhQZi40ycCXbsY2M3nzdaHiOxpcLzWIDGznwDVLOWYDTBtVO5QAtOqC4VDBdyA54AjSAYcd/Mln4hUBGzkYsgSmZCocdMnNnJy7wkSyHN2e0Rx55pDl/yU5SnKtWA5nM+1IeYXAIaGwAsV1OwAOuNm8veuRTM9M1NTtdj8yt1Xs7C/WezkL9xOR8vbszVz8+MVvv6szXD3cW64cn5uuHxubqX4zP1WMTC/VYZ6Eem1isfzE6X28Z6ddN/W5NzgHLdC1O9Wv2ceCkT1uei0HG9rEx4ACG8RL7iNcAACAASURBVDtj5gALPIDoTY3csAiUA76znHMXckPhHTc6vtxheq3IXbtgf+VXfmXTzyDI1AO08IBoJx6gJesEPG0QRHYxnjbslNuAAjz1yMMjS9twcheVuMEITACYnU78zMX8+LXWsTkPNHdLspStUobijFMH2d/6rd9q3sFiTMfG2QzQLCKejBYgDfIsfFtONt7p1sz0WM1Mj9ecB6P4tGdWM9WZmq/u5Ex1OzJNr8Ynt2lkqlfb1K9Of2H7Qe30Z58D05/gulA8fvA4wqs+vnb3qAH56e3hhx9uwOHRhDtKb8c6Hrig3J36xzG8g+bONMcFF6Ngi4eH3V79AUo3EIJ/IaBZhM8HaBbM4uEBVBY99Yvx2IdbV23UXWDq/Ksrh2Lf5nSwkUwlBkCGZDoXiLkbM99toLmhGrJ1CprgOp8JlmzgqvUsyBfogGgBEKChZAa2MkUbSO2yhW/XU+43b1t0arrfrRk3E/1OzfRtaTM1NTNf/em5mu77imamphrZTE3OzlTPhx2zc9WfXWh+3/TWRsDV5jKtuclmXl70+rNHFu4OZTngACDzo/cvsCSjeazjNWpxyb+q4mxCLqjmYEt1l+qqltU8s5OFLgVoT7aFRgcA/LWBFpAAwMVAFv0gWNT5dBwY1F0MaObeBhCsAFrigcMNGR0CTM8Sh9zi55GFbQGAgM6WKWsBlYDToTbQZLSLAS3Auhhvg+RLVRYYWdjkgcgFAzDA51laAqU/NurKzmjIVesiQtq5UpVxmdyWIUtlC9wJZGTJZuHZHtMO30kGEKGALuAIkC7GYx8OTNrgZAFXm8e2zenFKEBrA0nZRQgbjhHR4YDWPLC1dQIMAigEeM5oARWdBQO02ORm4P/PQAMIwXH1ApA6UpeRAhrchUCHA1nqaQdUZOq2kGQemXMngAWAAMK2DTLgIQ94LgS06NmzUW8v/sVAFn3aqCuHK7cBlnLs2/xCQHMxtoHlgm6D8XxGc06xJQKTrTOAAqqcyYCKLhkNeumArg00C4gsyOdLFvBLSe4CPax1kPd7rglL6eaKCxAQqgOaceOe4ntdW1Y3HmcyF5w2gOiBrOdxLkRB5cftu7pznB1B5lTHfTfgigYUgJEZbd0yogfAtmgAom9TgEwXPd4GSYDU5m1wXKgc+0E9MA3KUn8yoImB+LYBlzJ584+OOcwGQAAlOKknuwV80qKgq7O1GDsB7QsB25cSZHwJkO8C/It9/vU+d4x+YvIk34ciPj4BQj8lOfA7pzlz+aM3bNxxOs+5Kfiqr/qqBlzm7e7TmUPwANhdu5sOgPKxiX/hjw/tPAx3Z+omA8iMSXzdRADYe97znmZMFr4NKIAL0NrgC9AClJ14gBHezlIpB1DtesppN8jpB7dOIAKyAE19EHDqbiyHZDTgcah1dQOZ7KYcoKkjW6orllyGU7Z1ZMtJRgvQ2vWULyXTDYKu3WZQN1hnS2aBAMCHvP75Rwsvk/gpyj+05gdz/9SjfyoSQHxbCVy+RAIUcoB0tCAHRlsmEAKQGwl6v236qcpfVvJPSvonKMmdfQEK0HxEbDwWTwz9/AWwxuKOTGyynQZYXyzQApxwfSuHRx4Z0KY8CLK0aQMtoLoUoDUZzfbiKgMeVyzQCYY6sAVw5MCGIyCzVbQfbwRMuAVP3ZaE8vAzwKFvb1tpE/vYDfKdwJW2fNrSnIlkKYCwRXnu5SsjYPNvfcpwfjyX0egj80jDHakfw7WRvVyMspLFcGxwN+vi2v7h/co6c/psra1u1N13P72e97z76ylPeWptbjpaHK0zZ87V2TM31O7dvk7f/knLD/P8WCzxsytcDGjR4xfLZG0QDZYDmoBqkO8EsrQZvOsM2MKzXbY5IDYZzW1/nu4CnEzljhOoyAFNtgNCWyUA0gGa7dMT4RysA5oAI0DD20BIvW0PPJFbxLbP2LX9KQdw6Q8nc3DnI3qHU2ej3E0qXyoBLX8h/criSH9joxMNjY6M1/DwaB044K8mfi7t3+/J+fahXrbKDUT7JoG8TclutswArQ0y8mTKACT61AGJLACNHCfH22Bs69tlNtYhB33gerItM2A7DzRXPOAAEGABFKUrjgyRJbuRI0BDgGZR2yAYBFVbZ7ABRuTq5G2ii5+d5AFR25cyefyGkwNMbGMXH/jFdGz4sH0GHA3ghscKyNAgwICrTYCm7eB5DFh2AtiTAa0NAuU2aNQDnjbIIot+sB092U5EN5jRPi+g+ekEkGSzAM7WSIYDH0C1bxDo2Mp+gg0IFjU8C9wGiDJA4lnY2FnktM2CRxce+ZPx2Ianf3V9ty+IJ/Ozk44vGTFzcIG5sx0ZHmsABlBtoLUB1i4DVDJUG2CD5dRx2SgEOIPUBkbAhAd8sR+0i5683a5tl/KXBGhAJGO1gQZkzmo4EOK2TqBTtm3aYgEt21wWIQt9IW4howvA1AfLAUp42oTvBAi6bJE5E4bHP6DHx+fD+bXletQhsyWjAdvgtglc+/Yd+Czalj3xjaftE1iBKcBSl/WS4QJKPIAZ5AEDTheQaUOmHl3ARQa80auHyAaJzvo+2dZpO82WGX5+63QQBrI22ICILJnL9glcKFspwHlW5CCbTJGFzOIFIOGDQCQnA4S2Ln7S7mI8/QV4sQ+gBzNo7D8fHl/AZs7uwJxdR0bGavjA557NksWaLLd/+8wGeAAETEDGjzHg6tG162QAEdC0QRaQkNEHjOy1Sxt2bAIs9fgEoICKDcDHT+QBoK0zANrpjDZ4UxAbfzdkyG98MlayVrZR57Bsn3QBXgAnu+U52ucLNPYhIEMByeDiRx5+IT0wAQG7ADVt6AbBFt2gv53qseU3QJPNnNl6k35lcMFsvwAwMdFtbg4ATNlLAqOj/oaZFyq3sxWQ8iVzZWGVgY1PY3U3amGVydkBBzAEOO1ydEAREAVcgKO9ekCTtqnj/AJowN22p3eBuLiALSCSsS50VovNeaABFGDZOpPdAjR1QEt2y52nzKYs4IJiK3ElKiNl1Gwvj9+lKZMZMHLOiR2wCSxZ2tDFX3jsB3n02dJ2assm48RRZPrOnSUgtDNsgIbbOo1VW6BYXPRU3JumK7WyvFaLCz409oP/fC0vr9bBrcM1P7/9ZyDYiquLNb8i2D2UkR3CMyd/PAf3bM5vssqet3nU4t0uer82eGxgEb3i5M0UP+wr4ymTe2SDlOk9Xold9F45Z6OdRzn5dxz0GTJGx4YvGGiAZOtMNguwyJSBCgjpbZnqAuRmAJqzpeaMx4Y+QXSWC/m5BgmYCZiQYHlLQmAFwIRN3E9BIX8UBaW+E/dsDHnqHpKxkedkKHWvBqn7qz7e8cfvv//+5tcCj3z8aoB7zujXEz87hZN5Roc/9NBL6iUveWm9+MUPN/yhB1/SyB5++GX18pe/oh55+Ssb/opXPFqPPvpVzUNcryh5MOwhsteLPLfzOpNfGTwY9gsFnj71i/z6gPQbMg7P+dgqm4N5mZ9XozwLTFw8OE7cvLUixoDsZ7VLAZr1dqF9QUAzmGQzAAKsbI+DwKMP6HKj4OowOY9J/GRjcZ5YhIeaAAiEwCFl5KGngAqup+jhyp7GCxwSWP4sPP/ukgOMPGhNYNuAAhx6HHm4isja7VIPAPkCUqBuL4Yr3VxdDDKJLLNN5+rs2RuaB7OnT5+t66+XffwLLRei7X8xJtlJFnNBujhzMbvAkXVBec6Z32htSe1ng7ZXW75MKyvL5naG3Bnblu0gsrfMjWzH2QWyg+C22JzN2tzWyY++AS1bZjh5iL4NxmbrFGgTBDAEQLZEEzT5TJqNMvAhdrKUyQtEgpFyeIIV3pbb7xEZP8pJzbYllHOXQOaQj9vaBDZkuwtFlq0w9bZeOXI8Oly7cOUsTso5AjRb7+j22ctNQfM8bXS8OZt1Ot2amLDo248/lJ3jMu74z5ZtDMp86kfdnC1Yzm9k+naGAqLEI8cEYHIey7GEvwCQLUAGlPyIbUAbHV9tgKUMaPoMmAKw8MjxAC26BmjSqgUGMsBCgBZgyWC5ugAsgHF2AzRXxeDCtBetKVs4Qe92qr9rV103O1Nnh/fXvpHhmux77377z573Op2a6nSbQO2/fHf1DozWRLdT45PdhiaAo9NtfI2NjlUXQHqP0+Ogs5Cj+/ZXd3SsOsOjNTY+VROdyZro9qrT7dWYd8l6vZrwJ9d9DdUF2Kma9HrQ8Hj19o1Ud3yiOrP9mpjt1/hsvyYbYE9VpzdVk92pGn+8bbc3VcP96RrpTVW/M1kz3V7NAtP4VE13Z2qq02t8TTnzdcZr3549NTk+Wt2xkeqPjtf0gbGaHp2onjn1AGuqpoZHanZkvGaMYe/emho+UCsHRmpjolNLI8N1vD9VRycm6vD4WF27OF+H/bHq/mSN7d9d3csvr4Xhkerv312zo/tq9sCemvbG6949tbh3T23t218be/bW2uhwLezbU0sj+6vrX0bZt6d6+/bVuLeZO5NNRrSmshuAhYBOUgCmgAgPuCLHU2ZvFxiS0aRuQAMe2yaQKQd0yWps6HL2cih1BebgjKecq63hFqI3VSOTndo8sL8evuWmevXJa2u/gM9J+9uPN6Ynp6o7Nt6cA86euK6OLq83f8R4tDvRfNDSmezW2PBIdcbGt6/0A/trZGy09g8fqJHRkWYsxnNkY6tG9+yvY1uHaqIzUwc8ghgdrz379td+WWO6X8MTndo3PlH7D2jXqX0jo9XdvbduP3mmVhYWa8/4SO2bHK8D/W0QjI6N1+rmVnOwH5ucrL2jLoLJ2uMPvvSnqz/erZnOZHVHxmuuN19T4/3qd3rVGRmryXE0UuvLizXT69TMZKemR8Zqa3qhDs4v18riUs0vLlRvslPHV9drebxbW4tLNTM6Uuf8IcTR8br72hN1cGKszi0v1fNOnap7jh2rG9ZW6v5bb6vFyU6dvvbKeua5c7UyOlJ3nrq2VidH6vh8v66Zm65n3ni67jp+rG6am68Hz5yrZ153oo52x+uhpz+1DvYna37f7upednkdGOvU5NT2XbuEIpbAJUsigIMFGetiQLO1s+GnAZrDYjIVzhEU2hqhMuALGAGRDCWjBVxPBrQpQBsermceOVoPXXtd3XX06jq1daSm9w7XTH/7X/voTvVqY6pfL7juTD106y31ottvqfuvPVF3LizVFbt31+rUaN176HC9+Oy5unVhob788JG6aW6ubl9eqbMz03X26MFam+vV97/yVfWsiW696cwNdcfUVD378NG6sz9Xr73xjrpjeb3Wd+2pew8ertunZuvl15+re1c36p5DG3XX5FS96a67667h0Xre+kY9fW6uXnDl8XrpyZP17JXVum9xuW6fma4XnThRZ0ZH6+vuurvO7t1fr7rmVL31qhvrjv2dOj0zW685e1M9d/1gvfH4mfqWzZP1/MOH64XL6/Vdd31Z3bZ3Xz185Gg9cPhgvf7mm+rV152qrzp5sr5ieamuuPyyemBpox5ZOVSPnj5TD191Vb3g0OF65PDxevT41fXig0fq+bNL9eDcSr1y82i97ODResnBY/WU+bl68PpT9ZXTK/Wa46fqObPz9fAVR+p1Z07Xw+J19Gg9fPRoverqa+plx47Vg8eP1SvOnKqv2TxaN8z16uDey2p2/96aXZqv8e72nb9Df4CW7RO3+w0CTT0ZLBmuXXe2HQK0ZDAZC9AAjgyoILMtU46djGdPd3YAsmyZAVy/26u5iV5N2s6me3XPsVP13NXVunrvnurs2lUPza3Vi1YO1fj+A82VZIs6ODtT911/fT3vhjP1wltvqm+955n1tXc8te6Yma1X3HJL3by6VM++/mTdd/a6evCmG+rBc2frBSdO1HPPXF83nbiyFvqduu+W2+uqfSP17fe/sG5bXqqX3HJr3Xv8eD3jiuN13eJcnZro1uvO3lYPXH2y7j1zXW10RuqRczfXdWsr9bSTJ+pkf6buufKqumVtvV75tHvqdffeVw/ddGt9+TUn6uatzXr+TTfX2cWlOrG1UbdvbNVDt95ezzlxto5OztTJ1fV63ZfdV085eryee+6muufYVXXNwY06t75Zj37FfXV6bqWum12qK2bm6vjKSh1bWqrbrj1Rp7cO1cre4brz+FW1NT5RR9aXa2txtu688Wwt9iZqfX66qW/M9evY2nIdXlysrZnZ2lpaqu7EeC0vzteJpfVaH5us5bGJ6g0fqP7YSPXQxGhNdjxYn6iJzkiNTByoTn+iHjp1S82ODddsd7w6M73mT73628IAJoPlTOh4JPk4+0kwgCVTwUHO1QFWm9Odz2jurDQmcDaTpZzLHMrJkuVwnQGfMhtvnxrEhTKarXCuO9WccYZ7nXrg5rvrwePH68ErDtc9152ub7j+5nrzU++t3thEdae2z0LTI8N1uNOpu648XicXZuuetc26bX6xNi6/vJ7iX/fdt7tOLMzUVmekrp+frWsnu3Vs3746NDpSFmFhulvrnana3LWnrhwer829u+u4DyZ2727OKIt799bxkfF68PjJunF6vlaG99f8gb111YHRmt67u+b376uVPXtrc3i01vYdqIMjo3XkwGht7T1Qa3v21cLu3bW8d18t7NpVMyPDjd+VXXtqddf+mt+zv45Mz9a5uZVaPTBaK/uGa3XPgZoaPVCL+w/U7K7dtbznQC3u2leze/fXzOhoQ9MHhmthdKzWRiZqaf9wrYyO1eTogZr1D2fs3d1w5YYmRmtmfLTmfJHk34GamKi5aZ8bTtXaeK+Z+6LP4qb7NTfZrfl+r+anp2pueqoWmn/+0Ufcver0O3V491jNjI/U/FSnujO9mpzpV6+/fdPgRsyNhBsPW2a2TlgBJvjAgamdxYAwGY4eZpqM5rkKZAKQbEUpi3k4xynwRQdgtlQgwy96Rnv8bNbzLlp/qjYWl+vk2nydWpurqzfW6tql9Trcn6++s1nfgbxfU/3+9u333n01MepsNVJ7O6M10u/WSGei9k9O1IFep8anJqs5u012quOObbJboxOjNTE50QB7cna2xqenanRuosb80zheM5/kf6YBtc/9Oj1/sHm+JqfnaqI3W2PT89WZXTxPEzMLNdGfb6g7Pd/Ysh+fX6hxf1phdqEm/VHmubnmC3xf4Xdnpmtsqldd//gXm4WFmlycq+mFuerPzdbknK+5+jXlbDo3W/158vnHaaGmZxcb6s/5dz292jRf/fnZmvbnufzyMTfbtO018+nVFGAA1YxvHfyNOB9pTzd2bKdnZre/JuvP1kzzt379vd9t6iz6NWW6Jnud6nTzwHqiJie3v7OQQPLIw68NHolkN2sDCuiADQ/wopesGqB5XgRgkAdYeA785AzVk9nUAc+ZzYPXbJsO/clsuRGY9gP34x97zM7P1fRkr+ZGD9TyxEgtTHZqtduv1d50LczN14K7l9WV5s/DG+za47Tqq5r11VpYX6nVjfVa3lyvpY21Wt3arDUZzj/F7EZmC208Tpu15g750MFaObxWS1K8xzfrm7W+sVlr5rm+UWsbW7W+dajWNg/W5sGjtX74CVo7dKTWDx2tzcPHauPQ0do4eLihzUNHauXw4Vo5crgOHb2i1v2zk862Hv/449Jes/Jdgj63tmpFBthcq+X17T97P7u4UDOL8zW3tND8/d2Zhfma8a6cf4HELwpodqH6Dcg84lmoGbHzxwN9ojjrc8Tp6vsuY6rf3Hn3JruFAKTXm6xOr7t98XU7NdHpNDc7nYluTXZ7zSMXj16mpvo11tyEOfb4UGf7Va/elDdstt+ykdGc1SQejz9yxIIRwMKtFZKgUDubkcOUh/BDngoHUEErJUCRkwVowAZkoWQ7NulUO2U8/pzlcjPBhyfMV1xx7PxLlrZrDzDzM4sysjV7oEmfXxKUn3hYuv1zDcBrK8Om7CcadvFDrx6b/DrBjswvE573xDd7v1qQe0DLji96OnU/1WRc5OmTPjY4//TmgtS1M5fM0XjyM5T4iJe40SMydTbKOBtrg7Im2XHE2TpaAzx6ZWRXik3WmhyAEJDg2f5kK/okpQAMD/BiH64NXZPR/PTAQYCh8wCE3MDxdKKjkDYmLXhAZ/I555ElKGyQwCRo/JIN2msXsFiIBNci0mmnjGuLC1q28/jVj/6j1zcydnPMxYOT8ZV54WKQxbBIWTBc+/hI3MgFNbEkR4kdXa5wZToLoS82dFkYnF52SHsy1B4Hm7SPHZmx4SkHZBkzzo+5a8dH4qBNZPFJT47zlbFkThk7OZC1ia4BmoyWgWXB8HScYLcHnqDSZRFyd5rJZTLqBuDKILPw6vzT5YoR1AyQnh3Slz70ZeKRs9GeH8SOf8FA7NQzDlx77fDMr22jf/X0h7PVj4Ah9QDWmFwIiUHiEW4MyhmLMl8o/QA4f6nzrxzgq/OPjJmP8Cx86rg4kOsjbfVPh4yXHCUWfOsz65oxslHmTzkXkjiwxclQ1s56otTpGqC569SIgjODwRNYWccg6Ml0zN7g6JRlDoMWBPUEIxPnL4GM/0wMpzcZZX3Ed/oSKDb8xl4/aZNF4Dv6LC4bZfYWjw17svjThkxQElR1ckTW7m+wj9jyifRh7Gkb34kfPZ/6T6zivx0L4+GHTz5iw2/6xKOjRxmfMn/6Sz98kbHhP/K0pdNneMBovBkPvbLkQK8MH8oh9SQRvxMPeVOCEx2n8yw2uUmo0ykbmEGlTQaE07HJQNVRbBMENgl2yqnHNx/61NZViOvDpDKOdpv4Zhc5+/Sd+bGjV09fyrbp1HFt03/K+o3/9rzItGHPhn18pWwO5sSWTfrAU6fLYmoHFJl7+tUHyhwyV37Ypt+shXb84PqnR7KoflF8R9fmaWNcxoTDQxJPmwNZAPc5QPOaSNtxOg/YcB2Qm2CCZXAJos75wE0qg2OfCbJFAR9/yvGpHz4yce3oyZT5btfbY06ZD3aZvLHQWQx+9W9sGR+9/skzTvaRKdNlHvykTRY6NvxnodOH8fDLB3tjY4e0szDpmx2iY0uPZIXUEy82GZexqacffdOFJwbphy0/5Py2+02bNo+ezHjw6NXNsU3JcmTWQb8wNiSt6TwLZPLQzgkjco41pFNmn4Gyy9bJlh1ZgiP49O3F44O+HRBlNtpGb5L8CUzGp51xkKcP9ogNP/Gtzh/7XGnapR/+zcMYtckNCz0iwxNsvsx9JzlZFjHx9GgAUHLeYmMu+suc+KZPP8affti06xlX5skO8cunOVpoemNITLUTn/bYE2M2SF1s2BhT5GSJI5u2jnyQ2KOskTE1QHNQi1MDAjKGDATJRMhMJgHnxOFfJ+y0x9kJjsFqFz3ONxlbfpTbdfIE0oSQun7p2PKN80eOGys9e/2yEWx9AHj6Uk4Qydr9saczX3I+9M2nOp16yuaq74w/vjKm6DImbflQ1ze7LAjOPj7Elt4FkLHrhwznq60jJ+OHf3V9scUzF3X+EJn+kLnj6UP7zLttr5x4a6M/8YIDZXrt2MROnMynAZqvtXUCJAbspwcde9ajsSuFowTbQMgzGXXOMrgsFp86ZMcmPsgzqXD96pMPdvFFHj988KdvcuNSTmalR/xEHj8ylbKxJRDGzI5/geePjk17PvQCJqDkbMRGFtKXsZhj+iJTZ5fx4/zqL+NInV3GrF3mE7k5aYf4wdOHungZozlqm77J2PGT2CdGZMram3vKxhZ7bflgY958kKUP/cQ/G+0SO7bAKKOzaYDmFQ4KpEPOEwzBFdBcFek8k8gCkAe9WUBtBMWAEJ+4Pgw2gSYzUJwMGYs+0p5/fg2eng/++UwwUk7Q9JFxscmYyfjlT1m79tz5NZa2vfHxK5iCp00WnA9Er11ilflok7vz+GafxckCqact31kTZXJ9mjv7zAfXjk5/5px5a89W+8zFGrEz1oyZng/xwDOftONbe+34U0cZH3vyNvHVtv2cMxqHDAyWo3bH5Blc5DhbOgNLVjAh7TMggwxpQ8+WTPD4ZctHJkQ22A+9/rLo0ZOzDxhzJqKns1DaqCPz1J8yzmf65yekrXbss3DqKHNla/6JXRbAzhC5+WrDFlCNM/ZkAZIxkCNjEpvMLeMTH3rc+LWn4z/zSZmN8cRH2mUt1bVllzYZQ+LElizzzDzIEH3WWjlkzhKDuTZA8/MKJcdZdGWTZ4wbaNtx7MkyWG3SCW5AFjwBiV3aBvX0gmoibPSVPtsyffGpPbtMXDl90DsCGDc9P7HL4mYe2sVPeNplLtoibcgSZGNIcMn1n1ikDRkw8k1Hnj75Mc+0xVNug6Ita/tQNgZzYsO3emLT9pFxsNNv+o4NfeaYsRtn/MUuY898Mh5cLGAn8UtbnL4Bmt/zDDgHPI40IGOUIOIBgEEDRyamDVn25QzKINnRxZbMAriyydQR/2kXTm7ydAKEJxjamiAeih/1jFUbdvHTDnjGJUgp4/yYu3Gkj4wlFyM9n+TapE6mHbm2yNjpyYwnfaQ9G23IldP3YBzYZ12iCzdfsdZH+mYbv7i4s0sc2+OOH5weF8fMK3U6ssiNV0wyLhx+yHHtGqD5IdkENGwHgCE5mcY61cgkcMSGnI1gqiddKqddAs2WPO35yqD5oEf6NaEEDI//jIdN/CnzyVc7EGTq7BIYvvhIf4KRgAiY8enL2OO33Q8/GT9bNnyyyRjYkOGJQ4Afm4xfnS0iS1v9Aw6e/ugQO2QO2uHqmWv0bXs+2JmbNsY12C8bbdNf5qfOV+rmKmbhypmnsjEj8WRzPqMlSDHSKI0zWJ0ZWNCbQdGTuXFoD5Jt2pigjvlE2mSy+tYuY1BOnxkPXQatHFucPeLfuPlV1zeKbezU4x+PPD4sFuLHuLOImS959O0LKGOJT+3Y4WR44hFf8UNv7DgdyrjJ4idjSvuMjdz88bSPrm1LD/B0fF6I6GMTf+HGk37EzDjZ0gcb4daP3u/pQ54veacslM+zvH+kAbLN4cCkTHf+WuVJdwAAAWlJREFUnbPH/wSB17h9ye0Q3Na1bdnk/TW+2NOH59M677UZBz/a5Csr8hB5yrg6+8jSzyDnC7Fjn3lnbBl7W542GUd8pj917eMjviPTzuvRaZ/P6nA06D/y8LTng0/cm83h7PI1Wmzx+G733R6rcQ72zX9kyvHblvMR/+lDPf2kPZ219V3ukP+dOnXq/Os7fvMDPodqt+V5vGF/V6dD7PJKT96vCveKTvRs1L36g2LjVZ+8d5b3uJwX8z6YmxRElnK47V4ZD6l7d8w7YsjzwXz2L3Wj/FkAv4b4UwD07Dy0RuqIDqUd7uUDL4n62rtN+fIbZxPO1qeM/viyD5J9qO3jZOTLMx9BIx9E+zg6X79bD5QPsfE2Re/LdR9k+9janzr1d3b9NUuk7Mt3cuSjbB9sh9TTxlfy/gSqL+Z9QY/8rV9/9hRvy6KLHPfFPfLnUv1JVv82hT/d+ta3vrX5k6z+VvCHP/zh+n8B+ff85/O6q8IAAAAASUVORK5CYII=;" vertex="1" parent="1">
          <mxGeometry x="403" y="627" width="44" height="24" as="geometry" />
        </mxCell>
        <mxCell id="ucJcCLavaTVOP6PVcXHW-12" value="" style="shape=process;whiteSpace=wrap;html=1;backgroundOutline=1;" vertex="1" parent="1">
          <mxGeometry x="424" y="785" width="30" height="30" as="geometry" />
        </mxCell>
        <mxCell id="ucJcCLavaTVOP6PVcXHW-14" style="edgeStyle=orthogonalEdgeStyle;rounded=0;orthogonalLoop=1;jettySize=auto;html=1;exitX=0;exitY=0.25;exitDx=0;exitDy=0;entryX=0.567;entryY=0;entryDx=0;entryDy=0;entryPerimeter=0;endArrow=none;endFill=0;strokeColor=#0000FF;strokeWidth=2;" edge="1" parent="1" source="ucJcCLavaTVOP6PVcXHW-10" target="ucJcCLavaTVOP6PVcXHW-7">
          <mxGeometry relative="1" as="geometry" />
        </mxCell>
        <mxCell id="ucJcCLavaTVOP6PVcXHW-16" style="edgeStyle=orthogonalEdgeStyle;rounded=0;orthogonalLoop=1;jettySize=auto;html=1;exitX=0.5;exitY=0;exitDx=0;exitDy=0;entryX=0.5;entryY=0;entryDx=0;entryDy=0;strokeWidth=2;endArrow=none;endFill=0;" edge="1" parent="1" source="ucJcCLavaTVOP6PVcXHW-15" target="ucJcCLavaTVOP6PVcXHW-10">
          <mxGeometry relative="1" as="geometry" />
        </mxCell>
        <mxCell id="ucJcCLavaTVOP6PVcXHW-15" value="" style="shape=image;verticalLabelPosition=bottom;labelBackgroundColor=default;verticalAlign=top;aspect=fixed;imageAspect=0;image=data:image/png,iVBORw0KGgoAAAANSUhEUgAAAMgAAADICAYAAACtWK6eAAAAAXNSR0IArs4c6QAADxlJREFUeF7tnX+sHFUVx8+ZDYEIgWhMMAFjK/tmNuWHMe3OUkQpomiLGFva+gMhKIJRI/IjRv6j/UtjiKAmGhAU0QhSKQhYKCJ9CKF9816DqbTdmX1/lNigiVgTAhqVN8du20dK+/p27p17996Z/b4/IIFzzj33c+bz5u3O7A7ToZ9Wq7NYZugKonwhEZ08+9/xbxAYFQLCwb6AZE9O+a+zbCrp75v7/4iicz9Jkt9NRO8cFRjYJwjMQ2CfEF2dZcnD3Gqdu0DyfAsRLQAyEACBNwns4SC4kMOwcyuT3AQwIAACRxAQuZ1bYbxNiDqAAwIgcBSBP3EUxgIwIAACcxOAIDgyQGAeAhAEhwcIQBAcAyCgRwBnED1uyBoRAhBkRAaNbeoRgCB63JA1IgQgyIgMGtvUIwBB9Lgha0QIGBFk/5XGdYHISySyZ0S4YZseE5BG470scoEQXVm2zbKC7CWmlWmaTJVtBPkgYJpAGHauYJJ7y9QtJYgQ3ZhlyW1lGkAuCNgkEIXtXxDx53XXKCPIq2mWnKK7MPJAYBgEwrBzPpM8q7uWtiBCtDPLkrN0F0YeCAyDQBguPY1pZq/uWtqCkMh42pu8UHdh5IHAsAiUuWMdggxrSljHGQEI4gw9Fq4CAQhShSmhR2cEIIgz9Fi4CgQgSBWmhB6dEYAgztBj4SoQgCBVmBJ6dEYAgjhDj4WrQACCVGFK6NEZAQjiDD0WrgIBCFKFKaFHZwQgiDP0WLgKBCBIFaaEHp0RgCDO0GPhKhCAIEOY0qJFi07K8xPPEeFzROjUQ0u+GuT5C2/QzM7p6Rf+PoQ2Ci+xcGHn1OMb9D5iOidnObGfyEx7RWTHCSf8Z9eOHTteL1ys4oEQxNIAzzij/e7jAmoTc0uIvkJEpx9rKSa6rZslN1pqRalsa6xzrbDccewkfplEfkQBZUEw89zu3dv/qrRAxYIhiOGBhWF8S0C0XOO5KZvSLLnEcDtK5aKx9hZiXqaUJDIuzONZlqxXyqtIMAQxNKhWc8kyYb5F+QA7bP3+VyC5OtBaYedOIblGG4fIOIus705PjWvX8DARghgYShTFa0joAQOliAOKut0kM1GraI1mc/EZjaAxXTR+vjgW/ma3N3GriVo+1IAgJafQGou/Lkw/KFnmzXQW+ly3l9xnql6ROmEYr2SijUVii8S4PBMW6U8lBoKo0DoidvALWvXiLg6u/uum/c/0Xqfe7TwZTBelafK00ZoOikEQTejN5pL3N4Lgj0R0kmaJOdNqIwjRK0Ejv3D37qkXTfIZdi0Iokk8DNt3MPG1munHTKuRICQkd2bZ5JdNMxpmPQiiQbvV6iyWXKx8p3CdBOmj5YCXdLsT2zUwe5ECQTTG0Arj7wnRDRqpA1PqJggJfz/tTVw/cOOeBkAQjcFEY/EUMS3WSB2YUj9B6MW0l5w9cOOeBkAQxcE0m53TG4H8RTGtcHjtBDnwZ1awsNvdVsnnv0CQwofuwUCTFwXnWrqOghDT2jRNNiii9iIcgiiOwco1g8N6qKMgLvakONZjhkMQRZJRGPdvKVmjmFY43MXBZFt6ItqQZsnawhA8CoQgisOAIIrADoZDECVsFX4+iO3ftnU8g7jYk9LxOE8wziCKJPEiXRFYPxwv0hWhVfgMgrd5FWeNt3nVgVX9EWy4UKgwc8GFQgVah0IrfAbp7wC3miiMHLeaKMCaDa26ILhZsfDQcbNiYVSHXw2r/lNucbv74MHjdvcw3v8OnsZPxc8g/R3jA1MD544PTGm/R1wDQQ68Fhn4HVIDD6KjAlxcM7BybQcfuSU8J/2AJPjShiMtdyG5+q+iYhnaJ4H+29vayTU5g8wiNnnxEF/7U+zAHVaU9jEOQd46InxxHL447khpcQaZ49cYvnp0WL/bh7MOziCWOOPLqy2BHXJZCDIE4Hj8wRAgW1oCglgCi7L1IABB6jFH7MISAQhiCSzK1oMABKnHHLELSwQgiCWwKFsPAhCkHnPELiwRgCCWwKJsPQhAkHrMEbuwRACCWAKLsvUgAEHqMUfswhIBCGIJLMrWgwAEqcccsQtLBCCIJbAoWw8CEKQec8QuLBGAIJbAomw9CECQeswRu7BEAIJYAouy9SAAQeoxR+zCEgEIYgksytaDAASpxxyxC0sEIIglsChbDwIQpB5zxC4sEYAglsCibD0IQJB6zBG7sEQAglgCi7L1IABB6jFH7MISAQhiCSzK1oMABKnoHPuPWyjSend6arxIHGLmJgBBKnZkRFHnehL5BhEtKNh6JkSbsyy5rmA8wg4jAEEqdDiEYdxjoqZWyzV7qpcWA40kCKIBzUVKFLU/TsKPl1lbiC/JsolNZWqMWi4EqcjEw7BzK5PcVLLdu9IsuaZkjZFKhyAVGXc01t5CzIVemB9zS/gzS3naEEQZmZsECOKIexjvf6q13g8e4qnHTSsLgmhhK52EM0hphMMpAEGGw/nIVSCIG+7Kq0IQZWRGEiCIEYz2i0AQ+4znWgGCuOGuvCoEUUZmJAGCGMFovwgEsc8YZxA3jI2sCkGMYFQugjOIMjI3CRDEEXdcB3EDXnVVCKJKzEw8ziBmOFqvAkGsI55zAQjihrvyqhBEGZmRBAhiBKP9IhDEPmO8i+WGsZFVIYgRjMpFcAZRRuYmAYI44o53sdyAV10VgqgSMxOPM4gZjtarQBDriPEulhvEZlaFIGY4qlbBGUSVmKN4COIGPARxw115VQiijMxIAgQxgtF+EQhinzGug7hhbGRVCGIEo3IRnEGUkblJgCCOuOM6iBvwqqtCEFViZuJxBjHD0XoVCGIdMa6DuEFsZtUojB8gojUlqz2cZsnKkjVGKh1nkIqMO4riq0norjLtstB13V7ywzI1Ri0XglRk4s1m5+RGIC8T0YmaLe97/V+N0/fu3fpvzfyRTIMgFRp7s9lZFATyABOdqdY2v8xBvqbbnXxeLQ/REKRix0Czufz4RuOV1SJc6EE6zLSr0Xjt8V27dr1Wsa160S4E8WIMaMJXAhDE18mgLy8IQBAvxoAmfCUAQXydDPryggAE8WIMaMJXAhDE18mgLy8IQBAvxoAmfCUAQXydDPryggAEMTiG1lj7qpyDS4lkRxDQtm432WywvHelwnDJcha+WJhPJeJHsmzifu+aLNkQBCkJsJ8eNTurieVmYlr8lnJCP017ydUGlvCuRDQW301MXzxiv9tJ+Dvp9MRvvGtYsyEIogluNq3Val+az/BDzNQ4RqkNaZasLbmMV+kDbr1/g3NZ1Z2efNSrpjWbgSCa4PpprVb8MZmhjcT0tgFlaiNJwc+lvM45r+pOTzxZAq8XqRBEcwyt1rnLJM83EtHbC5aovCQF5ZjF8U/O81Xd6anxgny8DIMgGmNptdrnSc4PEtG7FNMrK4miHLNY/sYBrep2k62KnLwJhyCKo4iieAkJ9V+EvkcxdTa8cpJoyjG735c44Mu63YntmrycpkEQBfyt1uKzJW/05QgV0uYKrYwkJeWY3XvGwczqbnf7n0tyG3o6BCmI/Mwzl75j5n8zm4SoUzBlUJj3khiS4wAHJppoHNdYsXPn1n2DwPj0/yFIwWm0ws63heTmguFFw7yVxKQcb8IQ+m7aS75VFI4PcRCk4BSsHDAH1/ZOEot7rdzXDkGQgoKEYfwrJvpswXDVMG8ksSgHCfHGLJu4TBWOy3gIUpB+GMa3MNG6guE6Yc4lsSlHH4gQrcuyZL0OHFc5EESBvJGv/5x/PWeS2JaDiCr351V/VBBEQZBDwJ4ioosU01TChy7JEOR4Ns2SD6lA8CUWgmhMIorizSR0sUZq0ZShSWJdDqGtaS85r+jGfYuDIJoTicL4d0S0QjO9SJp1SazLQZyk2YSp60ZFmBmPgSAlkEZR/AgJXVqixKBUa5JYl0Noe9pLlgzaoO//H4KUnFAUxg8R0adKlpkv3bgk1uWowZljdiAQxMCRHY3FG4hptYFSxyphTBLbcgjRtixLllpkMdTSEMQQ7ihs30/EnzZU7ugyBj6+O+fHZM02/HyaJR8wW9JtNQhikH80Fv+SmC43WPItpYTyFVk29bhO/QOffszpCZ3cgjnPpVnywYKxlQmDIIZH1QrjnwvRlYbLHiwncnvam7xBp7bVOwGYnknTZJlOX77nQBALE7L1p0yZe5ks3ku2Jc2SD1vA6EVJCGJpDK2wc6eQXGOyPIt8odubvEenZhh2PsMk9+nkzpPzhzRLPmK4plflIIjFcURh/BMi+pKJJYTk91k2WerqfRi2n2Tij/rSj4k+bNeAIJYJm/hzS4h25jmvnZ6e2FWmXf1nHB616hNpliwv00tVciHIECYVhp2fMclVOkuZkmN2bQOSbEqz5BKdvVQxB4IMaWo6726ZlqOsJEL0WJYlNm+tGdI0ii8DQYqzKh2pcp3ElhwlJPltmiU2b6kpzddGAQhig+o8NYu83WpbDlVJmOihbpasGjIqL5aDIA7GEIWd+4lkzttShiVHYUlYHkzTSZv3mTmYQPElIUhxVkYj53p3q/9Wbp4H15d9t0q10YMv3PPbj3oL2MD9X6q9+BYPQRxOJAw7K5hkJZH8l5jH0zTZ4LAdiqL25SJB/8LfP5jzp9J00ua9Wy63WnhtCFIYFQJHkQAEGcWpY8+FCUCQwqgQOIoEIMgoTh17LkwAghRGhcBRJABBRnHq2HNhAhCkMCoEjiIBCDKKU8eeCxOAIIVRIXAUCUCQUZw69lyYgBNB+jfkZVlyVuEuEQgCDgiE4dLTmGb26i7NJex6Nc2SU3QXRh4IDINAGHbOZ5JnddcqI0j/cUM/TnvJV3UXRx4I2CYQhfG9RHSF7jrlBDn4SK5VWZb0v/wZPyDgFQET32FcWpADRIQ2C9PWIM+f8YoQmhlJAnkQXMAklxHx2WUBmBGkbBfIBwFPCUAQTweDtvwgAEH8mAO68JQABPF0MGjLDwIQxI85oAtPCUAQTweDtvwgAEH8mAO68JQABPF0MGjLDwIQxI85oAtPCXAYxj0manraH9oCAZcE9nAYtu9g4mtddoG1QcBHAkJ8D7fG4k8I06M+NoieQMApAaY29xuw+nhhpzvE4iCgR0CI1mVZsv6AIP2fKIqXiPDXmKT/rOwFemWRBQLVJSBE00TydCD8aLeXPNbfyf8BY8SuIQnZB1IAAAAASUVORK5CYII=;" vertex="1" parent="1">
          <mxGeometry x="326" y="617" width="24" height="24" as="geometry" />
        </mxCell>
        <mxCell id="ucJcCLavaTVOP6PVcXHW-17" value="人脸&lt;br&gt;主机" style="text;html=1;align=center;verticalAlign=middle;resizable=0;points=[];autosize=1;strokeColor=none;fillColor=none;" vertex="1" parent="1">
          <mxGeometry x="494" y="785" width="50" height="40" as="geometry" />
        </mxCell>
        <mxCell id="ucJcCLavaTVOP6PVcXHW-18" value="开&lt;br&gt;关" style="text;html=1;align=center;verticalAlign=middle;resizable=0;points=[];autosize=1;strokeColor=none;fillColor=none;" vertex="1" parent="1">
          <mxGeometry x="420" y="781" width="40" height="40" as="geometry" />
        </mxCell>
        <mxCell id="ucJcCLavaTVOP6PVcXHW-19" value="电源适配器" style="text;html=1;align=center;verticalAlign=middle;resizable=0;points=[];autosize=1;strokeColor=none;fillColor=none;" vertex="1" parent="1">
          <mxGeometry x="388" y="643" width="80" height="30" as="geometry" />
        </mxCell>
        <mxCell id="ucJcCLavaTVOP6PVcXHW-20" value="220V电源插座" style="text;html=1;align=center;verticalAlign=middle;resizable=0;points=[];autosize=1;strokeColor=none;fillColor=none;" vertex="1" parent="1">
          <mxGeometry x="283" y="634" width="100" height="30" as="geometry" />
        </mxCell>
        <mxCell id="ucJcCLavaTVOP6PVcXHW-21" value="" style="endArrow=none;html=1;rounded=0;strokeWidth=2;" edge="1" parent="1">
          <mxGeometry width="50" height="50" relative="1" as="geometry">
            <mxPoint x="560" y="910" as="sourcePoint" />
            <mxPoint x="610" y="910" as="targetPoint" />
          </mxGeometry>
        </mxCell>
        <mxCell id="ucJcCLavaTVOP6PVcXHW-22" value="&lt;b&gt;电源线&lt;/b&gt;" style="text;html=1;align=center;verticalAlign=middle;resizable=0;points=[];autosize=1;strokeColor=none;fillColor=none;" vertex="1" parent="1">
          <mxGeometry x="602" y="895" width="60" height="30" as="geometry" />
        </mxCell>
        <mxCell id="ucJcCLavaTVOP6PVcXHW-23" value="" style="endArrow=none;html=1;rounded=0;strokeWidth=2;strokeColor=#0000FF;" edge="1" parent="1">
          <mxGeometry width="50" height="50" relative="1" as="geometry">
            <mxPoint x="560" y="940" as="sourcePoint" />
            <mxPoint x="610" y="940" as="targetPoint" />
          </mxGeometry>
        </mxCell>
        <mxCell id="ucJcCLavaTVOP6PVcXHW-24" value="&lt;b&gt;网线&lt;/b&gt;" style="text;html=1;align=center;verticalAlign=middle;resizable=0;points=[];autosize=1;strokeColor=none;fillColor=none;" vertex="1" parent="1">
          <mxGeometry x="610" y="925" width="50" height="30" as="geometry" />
        </mxCell>
        <mxCell id="ucJcCLavaTVOP6PVcXHW-25" value="&lt;b&gt;门禁布线示意图线路说明：&lt;/b&gt;" style="text;html=1;align=center;verticalAlign=middle;resizable=0;points=[];autosize=1;strokeColor=none;fillColor=none;" vertex="1" parent="1">
          <mxGeometry x="544" y="869" width="170" height="30" as="geometry" />
        </mxCell>
      </root>
    </mxGraphModel>
  </diagram>
</mxfile>
